<svg width="24" height="24" viewBox="0 0 24 24" fill="none" xmlns="http://www.w3.org/2000/svg">
<path d="M6.75817 9.64561C6.50704 9.89644 6.58994 10.3218 6.91689 10.4599L7.55149 10.7281C7.79436 10.8307 8.07467 10.7268 8.19727 10.4934C8.33966 10.2223 8.48535 9.9578 8.63433 9.69987C8.73606 9.52375 8.84239 9.34764 8.95334 9.17152C9.14553 8.86644 8.97875 8.45622 8.62493 8.3868L8.37928 8.33861C8.21597 8.30657 8.04742 8.35788 7.92968 8.47549L6.75817 9.64561ZM9.54324 11.7302C9.46416 11.9117 9.51076 12.1215 9.65146 12.2608L11.7503 14.3387C11.8896 14.4767 12.0972 14.5218 12.2771 14.4437C12.8192 14.2084 13.3933 13.8827 13.9993 13.4666C14.7176 12.9733 15.391 12.4128 16.0196 11.785C17.0671 10.7387 17.8865 9.57655 18.4776 8.29856C18.9901 7.19053 19.2523 6.15834 19.2642 5.20199C19.2673 4.95257 19.0667 4.75203 18.8173 4.75509C17.8587 4.76687 16.8214 5.02877 15.7053 5.54079C14.4183 6.13121 13.251 6.94957 12.2035 7.99588C11.575 8.62367 11.0138 9.29629 10.5199 10.0138C10.1042 10.6177 9.77868 11.1898 9.54324 11.7302ZM13.5547 17.084C13.6918 17.412 14.1178 17.4961 14.3693 17.2449L15.539 16.0765C15.657 15.9587 15.7084 15.7899 15.6763 15.6263L15.6281 15.3813C15.5586 15.0278 15.1488 14.8611 14.8424 15.0505C14.6661 15.1594 14.4898 15.263 14.3136 15.3611C14.055 15.5052 13.7899 15.6475 13.5182 15.7882C13.2845 15.9092 13.1803 16.1887 13.2818 16.4315L13.5547 17.084ZM20.5074 3.08001C20.7229 3.10657 20.8923 3.27585 20.9189 3.49131C21.1271 5.17342 20.9344 6.81321 20.3407 8.41067C19.7307 10.0521 18.6974 11.6214 17.2409 13.1184C17.124 13.2386 17.0721 13.4084 17.1054 13.5728L17.5011 15.5293C17.561 15.8282 17.546 16.1197 17.4562 16.4037C17.3664 16.6877 17.2168 16.9343 17.0073 17.1436L13.7591 20.388C13.5087 20.6381 13.0848 20.556 12.9459 20.2305L11.3885 16.5824C11.3634 16.5236 11.3272 16.4702 11.282 16.425L7.58039 12.7278C7.53518 12.6826 7.48174 12.6466 7.42296 12.6215L3.76916 11.0654C3.44374 10.9268 3.36117 10.5034 3.61068 10.2527L6.83853 7.00936C7.04804 6.8001 7.2987 6.65063 7.59052 6.56094C7.88234 6.47126 8.1779 6.45631 8.4772 6.5161L10.4368 6.91152C10.6009 6.94463 10.7704 6.89298 10.8905 6.77638C12.3892 5.32105 13.9567 4.28514 15.5931 3.66865C17.1856 3.06869 18.8237 2.87247 20.5074 3.08001ZM4.68356 15.5069C5.20734 14.9837 5.84709 14.7184 6.60283 14.7109C7.35856 14.7035 7.99832 14.9613 8.52209 15.4845C9.04587 16.0076 9.30401 16.6466 9.29653 17.4014C9.28905 18.1563 9.02342 18.7953 8.49964 19.3184C8.12552 19.6921 7.50073 20.0135 6.62528 20.2825C5.87704 20.5125 4.88558 20.7206 3.65089 20.9069C3.32408 20.9562 3.04392 20.6759 3.09335 20.3491C3.27982 19.1163 3.48814 18.1262 3.71832 17.379C3.98769 16.5046 4.30944 15.8806 4.68356 15.5069ZM5.96307 16.7625C5.81342 16.9119 5.66377 17.1847 5.51412 17.5808C5.44635 17.7602 5.38779 17.9403 5.33844 18.1212C5.25013 18.4449 5.53521 18.7303 5.85975 18.6453C6.04087 18.5978 6.22122 18.542 6.4008 18.4776C6.79737 18.3357 7.07049 18.1899 7.22014 18.0404C7.39972 17.8611 7.49699 17.6443 7.51195 17.3902C7.52692 17.1361 7.44461 16.9194 7.26503 16.74C7.08545 16.5607 6.86846 16.4747 6.61405 16.4822C6.35965 16.4897 6.14265 16.5831 5.96307 16.7625Z" fill="white"/>
</svg>
